<svg xmlns="http://www.w3.org/2000/svg" width="80" height="80" viewBox="0 0 80 80" fill="none">
  <path d="M 40 80 C 62.091 80 80 62.091 80 40 C 80 17.909 62.091 0 40 0 C 17.909 0 0 17.909 0 40 C 0 62.091 17.909 80 40 80 Z M 62.177 32.307 C 64.556 30.001 64.614 26.202 62.307 23.823 C 60.001 21.444 56.202 21.386 53.823 23.693 L 33.267 43.625 L 26.195 36.71 C 23.825 34.393 20.027 34.436 17.71 36.805 C 15.393 39.175 15.436 42.973 17.805 45.29 L 29.055 56.29 C 31.38 58.563 35.093 58.571 37.427 56.307 L 62.177 32.307 Z" fill="currentColor" fill-rule="evenodd"/>
</svg>
