<svg xmlns="http://www.w3.org/2000/svg" width="64" height="64" viewBox="0 0 64 64" fill="none">
  <path d="M 2.343 2.343 C 5.467 -0.781 10.533 -0.781 13.657 2.343 L 32 20.686 L 50.343 2.343 C 53.467 -0.781 58.533 -0.781 61.657 2.343 C 64.781 5.467 64.781 10.533 61.657 13.657 L 43.314 32 L 61.657 50.343 C 64.781 53.467 64.781 58.533 61.657 61.657 C 58.533 64.781 53.467 64.781 50.343 61.657 L 34.828 46.142 L 46.142 34.828 L 43.313 32 L 32 43.314 L 32 43.314 L 13.657 61.657 C 10.533 64.781 5.467 64.781 2.343 61.657 C -0.781 58.533 -0.781 53.467 2.343 50.343 L 20.686 32 L 2.343 13.657 C -0.781 10.533 -0.781 5.467 2.343 2.343 Z" fill="currentColor" fill-rule="evenodd"/>
</svg>
