<svg xmlns="http://www.w3.org/2000/svg" width="72" height="88" viewBox="0 0 72 88" fill="none">
  <path d="M 45.241 29.437 C 46.253 28.742 46.253 27.258 45.241 26.563 L 31.766 17.314 C 30.597 16.511 29 17.341 29 18.751 L 29 37.249 C 29 38.659 30.597 39.489 31.766 38.686 L 45.241 29.437 Z" fill="currentColor" fill-rule="nonzero"/>
  <path d="M 0 8 C 0 3.582 3.582 0 8 0 L 64 0 C 68.418 0 72 3.582 72 8 L 72 80 C 72 84.418 68.418 88 64 88 L 8 88 C 3.582 88 0 84.418 0 80 L 0 8 Z M 12 56 C 12 53.791 13.791 52 16 52 L 56 52 C 58.209 52 60 53.791 60 56 C 60 58.209 58.209 60 56 60 L 16 60 C 13.791 60 12 58.209 12 56 Z M 26 68 C 23.791 68 22 69.791 22 72 C 22 74.209 23.791 76 26 76 L 46 76 C 48.209 76 50 74.209 50 72 C 50 69.791 48.209 68 46 68 L 26 68 Z M 12 18 C 12 14.686 14.686 12 18 12 L 54 12 C 57.314 12 60 14.686 60 18 L 60 38 C 60 41.314 57.314 44 54 44 L 18 44 C 14.686 44 12 41.314 12 38 L 12 18 Z" fill="currentColor" fill-rule="evenodd"/>
</svg>
